<svg width="162" height="42" viewBox="0 0 162 42" fill="none" xmlns="http://www.w3.org/2000/svg">
<g filter="url(#filter0_dd_4_1112)">
<path d="M3 14C3 7.37258 8.37258 2 15 2H27C33.6274 2 39 7.37258 39 14V26C39 32.6274 33.6274 38 27 38H15C8.37258 38 3 32.6274 3 26V14Z" fill="#6734D4" shape-rendering="crispEdges"/>
<g clip-path="url(#clip0_4_1112)">
<path d="M20.9999 11.6726V28.3275M12.6725 20.0001H29.3274" stroke="white" stroke-width="2.08186" stroke-linecap="round"/>
<path d="M21 27.4948C25.1392 27.4948 28.4947 24.1393 28.4947 20.0001C28.4947 15.8609 25.1392 12.5054 21 12.5054C16.8607 12.5054 13.5052 15.8609 13.5052 20.0001C13.5052 24.1393 16.8607 27.4948 21 27.4948Z" stroke="white" stroke-width="1.66549"/>
</g>
</g>
<path d="M52.5999 27V16.02H49.1979V13.59H58.7379V16.02H55.3899V27H52.5999ZM62.94 27.216C61.896 27.216 60.99 26.988 60.222 26.532C59.454 26.064 58.86 25.44 58.44 24.66C58.02 23.88 57.81 23.016 57.81 22.068C57.81 21.084 58.026 20.208 58.458 19.44C58.902 18.672 59.496 18.066 60.24 17.622C60.984 17.178 61.824 16.956 62.76 16.956C63.54 16.956 64.23 17.082 64.83 17.334C65.43 17.574 65.934 17.916 66.342 18.36C66.762 18.804 67.08 19.32 67.296 19.908C67.512 20.484 67.62 21.114 67.62 21.798C67.62 21.99 67.608 22.182 67.584 22.374C67.572 22.554 67.542 22.71 67.494 22.842H60.132V20.862H65.964L64.686 21.798C64.806 21.282 64.8 20.826 64.668 20.43C64.536 20.022 64.302 19.704 63.966 19.476C63.642 19.236 63.24 19.116 62.76 19.116C62.292 19.116 61.89 19.23 61.554 19.458C61.218 19.686 60.966 20.022 60.798 20.466C60.63 20.91 60.564 21.45 60.6 22.086C60.552 22.638 60.618 23.124 60.798 23.544C60.978 23.964 61.254 24.294 61.626 24.534C61.998 24.762 62.448 24.876 62.976 24.876C63.456 24.876 63.864 24.78 64.2 24.588C64.548 24.396 64.818 24.132 65.01 23.796L67.17 24.822C66.978 25.302 66.672 25.722 66.252 26.082C65.844 26.442 65.358 26.724 64.794 26.928C64.23 27.12 63.612 27.216 62.94 27.216ZM68.7599 27V13.374H71.4599V27H68.7599ZM77.7196 27.216C76.6756 27.216 75.7696 26.988 75.0016 26.532C74.2336 26.064 73.6396 25.44 73.2196 24.66C72.7996 23.88 72.5896 23.016 72.5896 22.068C72.5896 21.084 72.8056 20.208 73.2376 19.44C73.6816 18.672 74.2756 18.066 75.0196 17.622C75.7636 17.178 76.6036 16.956 77.5396 16.956C78.3196 16.956 79.0096 17.082 79.6096 17.334C80.2096 17.574 80.7136 17.916 81.1216 18.36C81.5416 18.804 81.8596 19.32 82.0756 19.908C82.2916 20.484 82.3996 21.114 82.3996 21.798C82.3996 21.99 82.3876 22.182 82.3636 22.374C82.3516 22.554 82.3216 22.71 82.2736 22.842H74.9116V20.862H80.7436L79.4656 21.798C79.5856 21.282 79.5796 20.826 79.4476 20.43C79.3156 20.022 79.0816 19.704 78.7456 19.476C78.4216 19.236 78.0196 19.116 77.5396 19.116C77.0716 19.116 76.6696 19.23 76.3336 19.458C75.9976 19.686 75.7456 20.022 75.5776 20.466C75.4096 20.91 75.3436 21.45 75.3796 22.086C75.3316 22.638 75.3976 23.124 75.5776 23.544C75.7576 23.964 76.0336 24.294 76.4056 24.534C76.7776 24.762 77.2276 24.876 77.7556 24.876C78.2356 24.876 78.6436 24.78 78.9796 24.588C79.3276 24.396 79.5976 24.132 79.7896 23.796L81.9496 24.822C81.7576 25.302 81.4516 25.722 81.0316 26.082C80.6236 26.442 80.1376 26.724 79.5736 26.928C79.0096 27.12 78.3916 27.216 77.7196 27.216Z" fill="#151B45"/>
<path d="M83.7375 27V13.59H86.4375L91.4595 20.25H90.1995L95.0775 13.59H97.7775V27H94.9875V16.668L96.1035 16.92L90.9375 23.58H90.5775L85.5915 16.92L86.5275 16.668V27H83.7375ZM104.242 27.216C103.198 27.216 102.292 26.988 101.524 26.532C100.756 26.064 100.162 25.44 99.7415 24.66C99.3215 23.88 99.1115 23.016 99.1115 22.068C99.1115 21.084 99.3275 20.208 99.7595 19.44C100.204 18.672 100.798 18.066 101.542 17.622C102.286 17.178 103.126 16.956 104.062 16.956C104.842 16.956 105.532 17.082 106.132 17.334C106.732 17.574 107.236 17.916 107.644 18.36C108.064 18.804 108.382 19.32 108.598 19.908C108.814 20.484 108.922 21.114 108.922 21.798C108.922 21.99 108.91 22.182 108.886 22.374C108.874 22.554 108.844 22.71 108.796 22.842H101.434V20.862H107.266L105.988 21.798C106.108 21.282 106.102 20.826 105.97 20.43C105.838 20.022 105.604 19.704 105.268 19.476C104.944 19.236 104.542 19.116 104.062 19.116C103.594 19.116 103.192 19.23 102.856 19.458C102.52 19.686 102.268 20.022 102.1 20.466C101.932 20.91 101.866 21.45 101.902 22.086C101.854 22.638 101.92 23.124 102.1 23.544C102.28 23.964 102.556 24.294 102.928 24.534C103.3 24.762 103.75 24.876 104.278 24.876C104.758 24.876 105.166 24.78 105.502 24.588C105.85 24.396 106.12 24.132 106.312 23.796L108.472 24.822C108.28 25.302 107.974 25.722 107.554 26.082C107.146 26.442 106.66 26.724 106.096 26.928C105.532 27.12 104.914 27.216 104.242 27.216ZM114.687 27.216C113.727 27.216 112.869 26.988 112.113 26.532C111.357 26.076 110.757 25.458 110.313 24.678C109.881 23.898 109.665 23.034 109.665 22.086C109.665 21.126 109.887 20.262 110.331 19.494C110.775 18.714 111.375 18.096 112.131 17.64C112.887 17.184 113.733 16.956 114.669 16.956C115.389 16.956 116.025 17.094 116.577 17.37C117.141 17.634 117.585 18.012 117.909 18.504L117.495 19.044V13.374H120.195V27H117.675V25.2L117.927 25.758C117.591 26.238 117.135 26.604 116.559 26.856C115.983 27.096 115.359 27.216 114.687 27.216ZM115.011 24.786C115.503 24.786 115.935 24.672 116.307 24.444C116.679 24.216 116.967 23.898 117.171 23.49C117.387 23.082 117.495 22.614 117.495 22.086C117.495 21.558 117.387 21.09 117.171 20.682C116.967 20.274 116.679 19.956 116.307 19.728C115.935 19.5 115.503 19.386 115.011 19.386C114.519 19.386 114.075 19.506 113.679 19.746C113.295 19.974 112.995 20.292 112.779 20.7C112.563 21.096 112.455 21.558 112.455 22.086C112.455 22.614 112.563 23.082 112.779 23.49C112.995 23.898 113.295 24.216 113.679 24.444C114.075 24.672 114.519 24.786 115.011 24.786ZM121.723 27V17.172H124.423V27H121.723ZM121.723 16.29V13.59H124.423V16.29H121.723ZM130.773 27.216C129.789 27.216 128.901 26.994 128.109 26.55C127.329 26.094 126.705 25.476 126.237 24.696C125.781 23.916 125.553 23.04 125.553 22.068C125.553 21.096 125.781 20.226 126.237 19.458C126.693 18.678 127.317 18.066 128.109 17.622C128.901 17.178 129.789 16.956 130.773 16.956C131.505 16.956 132.183 17.082 132.807 17.334C133.431 17.586 133.965 17.94 134.409 18.396C134.853 18.84 135.171 19.368 135.363 19.98L133.023 20.988C132.855 20.496 132.567 20.106 132.159 19.818C131.763 19.53 131.301 19.386 130.773 19.386C130.305 19.386 129.885 19.5 129.513 19.728C129.153 19.956 128.865 20.274 128.649 20.682C128.445 21.09 128.343 21.558 128.343 22.086C128.343 22.614 128.445 23.082 128.649 23.49C128.865 23.898 129.153 24.216 129.513 24.444C129.885 24.672 130.305 24.786 130.773 24.786C131.313 24.786 131.781 24.642 132.177 24.354C132.573 24.066 132.855 23.676 133.023 23.184L135.363 24.21C135.183 24.786 134.871 25.302 134.427 25.758C133.983 26.214 133.449 26.574 132.825 26.838C132.201 27.09 131.517 27.216 130.773 27.216ZM136.502 27V17.172H139.202V27H136.502ZM136.502 16.29V13.59H139.202V16.29H136.502ZM140.728 27V17.172H143.248V19.116L143.104 18.684C143.332 18.096 143.698 17.664 144.202 17.388C144.718 17.1 145.318 16.956 146.002 16.956C146.746 16.956 147.394 17.112 147.946 17.424C148.51 17.736 148.948 18.174 149.26 18.738C149.572 19.29 149.728 19.938 149.728 20.682V27H147.028V21.258C147.028 20.874 146.95 20.544 146.794 20.268C146.65 19.992 146.44 19.776 146.164 19.62C145.9 19.464 145.588 19.386 145.228 19.386C144.88 19.386 144.568 19.464 144.292 19.62C144.016 19.776 143.8 19.992 143.644 20.268C143.5 20.544 143.428 20.874 143.428 21.258V27H140.728ZM155.788 27.216C154.744 27.216 153.838 26.988 153.07 26.532C152.302 26.064 151.708 25.44 151.288 24.66C150.868 23.88 150.658 23.016 150.658 22.068C150.658 21.084 150.874 20.208 151.306 19.44C151.75 18.672 152.344 18.066 153.088 17.622C153.832 17.178 154.672 16.956 155.608 16.956C156.388 16.956 157.078 17.082 157.678 17.334C158.278 17.574 158.782 17.916 159.19 18.36C159.61 18.804 159.928 19.32 160.144 19.908C160.36 20.484 160.468 21.114 160.468 21.798C160.468 21.99 160.456 22.182 160.432 22.374C160.42 22.554 160.39 22.71 160.342 22.842H152.98V20.862H158.812L157.534 21.798C157.654 21.282 157.648 20.826 157.516 20.43C157.384 20.022 157.15 19.704 156.814 19.476C156.49 19.236 156.088 19.116 155.608 19.116C155.14 19.116 154.738 19.23 154.402 19.458C154.066 19.686 153.814 20.022 153.646 20.466C153.478 20.91 153.412 21.45 153.448 22.086C153.4 22.638 153.466 23.124 153.646 23.544C153.826 23.964 154.102 24.294 154.474 24.534C154.846 24.762 155.296 24.876 155.824 24.876C156.304 24.876 156.712 24.78 157.048 24.588C157.396 24.396 157.666 24.132 157.858 23.796L160.018 24.822C159.826 25.302 159.52 25.722 159.1 26.082C158.692 26.442 158.206 26.724 157.642 26.928C157.078 27.12 156.46 27.216 155.788 27.216Z" fill="#6734D4"/>
<defs>
<filter id="filter0_dd_4_1112" x="0" y="0" width="41.9999" height="42" filterUnits="userSpaceOnUse" color-interpolation-filters="sRGB">
<feFlood flood-opacity="0" result="BackgroundImageFix"/>
<feColorMatrix in="SourceAlpha" type="matrix" values="0 0 0 0 0 0 0 0 0 0 0 0 0 0 0 0 0 0 127 0" result="hardAlpha"/>
<feMorphology radius="1" operator="erode" in="SourceAlpha" result="effect1_dropShadow_4_1112"/>
<feOffset dy="1"/>
<feGaussianBlur stdDeviation="1"/>
<feComposite in2="hardAlpha" operator="out"/>
<feColorMatrix type="matrix" values="0 0 0 0 0 0 0 0 0 0 0 0 0 0 0 0 0 0 0.1 0"/>
<feBlend mode="normal" in2="BackgroundImageFix" result="effect1_dropShadow_4_1112"/>
<feColorMatrix in="SourceAlpha" type="matrix" values="0 0 0 0 0 0 0 0 0 0 0 0 0 0 0 0 0 0 127 0" result="hardAlpha"/>
<feOffset dy="1"/>
<feGaussianBlur stdDeviation="1.5"/>
<feComposite in2="hardAlpha" operator="out"/>
<feColorMatrix type="matrix" values="0 0 0 0 0 0 0 0 0 0 0 0 0 0 0 0 0 0 0.1 0"/>
<feBlend mode="normal" in2="effect1_dropShadow_4_1112" result="effect2_dropShadow_4_1112"/>
<feBlend mode="normal" in="SourceGraphic" in2="effect2_dropShadow_4_1112" result="shape"/>
</filter>
<clipPath id="clip0_4_1112">
<rect width="19.9859" height="19.9859" fill="white" transform="translate(11.007 10.0071)"/>
</clipPath>
</defs>
</svg>
